# xmcd
#
# Track frame offsets:
#	150
#	14157
#	29937
#	43452
#	57782
#	73945
#	86927
#	100295
#	113370
#	129995
#	146492
#
# Disc length: 2191 seconds
#
# Revision: 4
# Processed by: cddbd v1.5.2PL0 Copyright (c) Steve Scherf et al.
# Submitted via: EZCDAudioConverter 6.0.7.1
#
DISCID=a7088d0b
DTITLE=Ricky Van Shelton - A Bridge I Didn't Burn
DYEAR=1993
DGENRE=Country
TTITLE0=If They Turn Off Our Lights
TTITLE1=A Bridge I Didn't Burn
TTITLE2=My First Reaction
TTITLE3=Where Was I
TTITLE4=A Couple Of Good Years Left
TTITLE5=I KNow The Way By Broken Heart
TTITLE6=Talking To God
TTITLE7=Heartache Big As Texas
TTITLE8=If It Weren't For ME
TTITLE9=Linda Lu
TTITLE10=Roses After The Rain
EXTD=
EXTT0=
EXTT1=
EXTT2=
EXTT3=
EXTT4=
EXTT5=
EXTT6=
EXTT7=
EXTT8=
EXTT9=
EXTT10=
PLAYORDER=
